<?xml version="1.0" encoding="utf-8"?>
<!-- Generator: Adobe Illustrator 26.1.0, SVG Export Plug-In . SVG Version: 6.00 Build 0)  -->
<svg width="175" height="30" viewBox="0 0 175 19" fill="enable-background:new 0 0 175 30" xmlns="http://www.w3.org/2000/svg">
<style type="text/css">
	.st0{fill:#FB8122;}
</style>
<g>
	<path d="M5.4,21.2H11v3.2H1.2V7.2h4.3V21.2z"/>
	<path d="M28,10.8v13.7h-4.3v-1.9c-0.4,0.6-1,1.1-1.8,1.5c-0.7,0.4-1.6,0.6-2.5,0.6c-1.1,0-2-0.2-2.8-0.7c-0.8-0.5-1.4-1.1-1.9-2
		c-0.4-0.9-0.7-1.9-0.7-3.1v-8h4.2v7.5c0,0.9,0.2,1.6,0.7,2.1c0.5,0.5,1.1,0.8,1.9,0.8c0.8,0,1.5-0.3,2-0.8c0.5-0.5,0.7-1.2,0.7-2.1
		v-7.5H28z"/>
	<path d="M32.7,8.7c-0.5-0.4-0.7-1-0.7-1.6c0-0.7,0.2-1.2,0.7-1.6c0.5-0.4,1.1-0.7,1.8-0.7c0.7,0,1.3,0.2,1.8,0.7
		c0.5,0.4,0.7,1,0.7,1.6c0,0.6-0.2,1.2-0.7,1.6c-0.5,0.4-1.1,0.7-1.8,0.7C33.8,9.3,33.1,9.1,32.7,8.7z M36.6,10.8v13.7h-4.3V10.8
		H36.6z"/>
	<path d="M43.4,24.1c-0.9-0.4-1.7-1-2.2-1.7c-0.5-0.7-0.9-1.5-0.9-2.4h4.2c0,0.5,0.3,0.9,0.7,1.2c0.4,0.3,0.9,0.4,1.5,0.4
		c0.5,0,0.9-0.1,1.2-0.3c0.3-0.2,0.4-0.5,0.4-0.8c0-0.4-0.2-0.7-0.6-0.9c-0.4-0.2-1.1-0.4-2-0.6c-1-0.2-1.8-0.5-2.5-0.7
		c-0.7-0.3-1.2-0.7-1.7-1.2c-0.5-0.5-0.7-1.3-0.7-2.2c0-0.8,0.2-1.5,0.7-2.2c0.4-0.6,1.1-1.2,1.9-1.5c0.9-0.4,1.9-0.6,3-0.6
		c1.7,0,3.1,0.4,4.1,1.3c1,0.9,1.6,2,1.7,3.4h-3.9c-0.1-0.5-0.3-0.9-0.6-1.1c-0.4-0.3-0.8-0.4-1.4-0.4c-0.5,0-0.9,0.1-1.1,0.3
		c-0.3,0.2-0.4,0.4-0.4,0.8c0,0.4,0.2,0.7,0.6,0.9s1.1,0.4,2,0.6c1,0.3,1.9,0.5,2.5,0.8c0.6,0.3,1.2,0.7,1.7,1.2
		c0.5,0.6,0.7,1.3,0.8,2.3c0,0.8-0.2,1.5-0.7,2.2c-0.5,0.6-1.1,1.1-2,1.5c-0.9,0.4-1.8,0.5-3,0.5C45.4,24.7,44.3,24.5,43.4,24.1z"/>
	<path class="st0" d="M66.4,23.5c-1.4-0.8-2.5-1.8-3.3-3.2c-0.8-1.4-1.2-2.9-1.2-4.6s0.4-3.2,1.2-4.6C64,9.9,65,8.9,66.4,8.1
		C67.8,7.3,69.3,7,70.9,7s3.1,0.4,4.5,1.1c1.4,0.8,2.4,1.8,3.2,3.1c0.8,1.3,1.2,2.9,1.2,4.6s-0.4,3.2-1.2,4.6
		c-0.8,1.4-1.9,2.4-3.2,3.2c-1.4,0.8-2.9,1.1-4.5,1.1S67.8,24.3,66.4,23.5z M74.3,19.4c0.8-0.9,1.3-2.1,1.3-3.6
		c0-1.5-0.4-2.7-1.3-3.7c-0.8-0.9-2-1.4-3.3-1.4c-1.4,0-2.5,0.5-3.4,1.4c-0.8,0.9-1.3,2.1-1.3,3.7c0,1.5,0.4,2.7,1.3,3.7
		c0.8,0.9,2,1.4,3.4,1.4C72.3,20.8,73.4,20.4,74.3,19.4z"/>
	<path class="st0" d="M87.7,6.3v18.2h-4.3V6.3H87.7z"/>
	<path class="st0" d="M92.4,8.7c-0.5-0.4-0.7-1-0.7-1.6c0-0.7,0.2-1.2,0.7-1.6c0.5-0.4,1.1-0.7,1.8-0.7C95,4.8,95.6,5,96,5.4
		c0.5,0.4,0.7,1,0.7,1.6c0,0.6-0.2,1.2-0.7,1.6c-0.5,0.4-1.1,0.7-1.8,0.7C93.5,9.3,92.9,9.1,92.4,8.7z M96.4,10.8v13.7h-4.3V10.8
		H96.4z"/>
	<path class="st0" d="M107,20.5l3-9.8h4.5l-4.9,13.7h-5.3l-4.9-13.7h4.6L107,20.5z"/>
	<path class="st0" d="M117.5,13.9c0.5-1.1,1.3-1.9,2.2-2.5c0.9-0.6,2-0.9,3.1-0.9c1,0,1.8,0.2,2.6,0.6c0.7,0.4,1.3,0.9,1.7,1.5v-1.9
		h4.3v13.7h-4.3v-1.9c-0.4,0.6-1,1.2-1.7,1.5s-1.6,0.6-2.6,0.6c-1.1,0-2.2-0.3-3.1-0.9c-0.9-0.6-1.7-1.4-2.2-2.5
		c-0.5-1.1-0.8-2.3-0.8-3.7S117,14.9,117.5,13.9z M126.2,15.1c-0.6-0.6-1.3-0.9-2.2-0.9c-0.8,0-1.6,0.3-2.2,0.9s-0.9,1.4-0.9,2.5
		c0,1,0.3,1.9,0.9,2.5c0.6,0.6,1.3,0.9,2.2,0.9c0.8,0,1.6-0.3,2.2-0.9s0.9-1.4,0.9-2.5C127.1,16.6,126.8,15.7,126.2,15.1z
		 M127.4,7.3l-6,2.5V6.9l6-2.9V7.3z"/>
	<path class="st0" d="M141.8,11.3c0.7-0.4,1.6-0.7,2.5-0.7v4.5h-1.2c-1.1,0-1.9,0.2-2.4,0.7c-0.5,0.5-0.8,1.2-0.8,2.4v6.4h-4.3V10.8
		h4.3V13C140.5,12.3,141.1,11.7,141.8,11.3z"/>
	<path class="st0" d="M160.7,18.6H151c0.1,0.9,0.3,1.5,0.8,2c0.5,0.5,1.1,0.7,1.8,0.7c1.1,0,1.8-0.4,2.2-1.3h4.5
		c-0.2,0.9-0.7,1.7-1.3,2.4s-1.4,1.3-2.3,1.7c-0.9,0.4-1.9,0.6-3.1,0.6c-1.4,0-2.6-0.3-3.6-0.9c-1.1-0.6-1.9-1.4-2.5-2.5
		c-0.6-1.1-0.9-2.3-0.9-3.7c0-1.4,0.3-2.7,0.9-3.7s1.4-1.9,2.5-2.5s2.3-0.9,3.7-0.9c1.3,0,2.5,0.3,3.6,0.8c1,0.6,1.9,1.4,2.5,2.4
		c0.6,1,0.9,2.2,0.9,3.6C160.7,17.8,160.7,18.2,160.7,18.6z M156.4,16.3c0-0.7-0.2-1.3-0.7-1.7c-0.5-0.4-1.1-0.6-1.9-0.6
		c-0.7,0-1.3,0.2-1.8,0.6c-0.5,0.4-0.8,1-0.9,1.7H156.4z"/>
	<path class="st0" d="M168.2,21h6v3.5h-10.8v-3.3l5.8-6.9h-5.7v-3.5h10.6v3.3L168.2,21z"/>
</g>
</svg>
