<?xml version="1.0" encoding="utf-8"?>
<!-- Generator: Adobe Illustrator 19.2.1, SVG Export Plug-In . SVG Version: 6.00 Build 0)  -->
<svg version="1.1" id="Capa_1" xmlns="http://www.w3.org/2000/svg" xmlns:xlink="http://www.w3.org/1999/xlink" x="0px" y="0px"
	 viewBox="0 0 5000 5000" style="enable-background:new 0 0 5000 5000;" xml:space="preserve">
<style type="text/css">
	.st0{stroke:#FFFFFF;stroke-miterlimit:10;}
	.st1{fill:#1D2228;}
	.st2{fill:#E1E2E2;}
	.st3{fill:#FB8122;}
	.st4{opacity:0.75;}
	.st5{fill:#FFFFFF;}
</style>
<rect x="-2724.1" y="-5220" class="st0" width="5000" height="5000"/>
<rect x="0" y="0" class="st0" width="5000" height="5000"/>
<g>
	<circle class="st1" cx="-224" cy="-8127.5" r="1879.6"/>
	<path class="st2" d="M-315.7-7258.4c-8.9-16.8-10.2-32.8-10.2-41.4v-1812.9c0-10.6,1.9-31.4,15.2-52.1c5.7-8.9,11.9-15.4,17.4-20.4
		h-544.9c6.1,5,15.3,14,22.5,27.6c10.2,19.2,10.4,37.7,10.4,44.9c0.1,33,0.3,781.1,0,1806.2c0.1,8.8-0.9,24.4-8.8,42.1
		c-7.4,16.7-17.7,27.3-24.1,33.3c88,0,544.9,0,544.9,0C-299.5-7236.2-308.5-7244.8-315.7-7258.4z"/>
	<path class="st3" d="M-65.6-7231.2h567.7v-635.5c-28,85.7-84.5,212.7-189.7,340.4C176.7-7361.6,24.3-7275.2-65.6-7231.2z"/>
</g>
<g class="st4">
	<circle class="st1" cx="5239.2" cy="-8127.5" r="1879.6"/>
	<path class="st2" d="M5147.4-7258.4c-8.9-16.8-10.3-32.8-10.3-41.4v-1812.9c0-10.6,2-31.4,15.3-52.1c5.7-8.9,12-15.4,17.5-20.4
		H4625c6.1,5,15.3,14,22.5,27.6c10.2,19.2,10.4,37.7,10.4,44.9c0.1,33,0.3,781.1,0,1806.2c0.1,8.8-0.9,24.4-8.8,42.1
		c-7.4,16.7-17.7,27.3-24.1,33.3c88,0,544.9,0,544.9,0C5163.8-7236.2,5154.6-7244.8,5147.4-7258.4z"/>
	<path class="st3" d="M5397.6-7231.2h567.5v-635.5c-28,85.7-84.3,212.7-189.6,340.4C5639.8-7361.6,5487.6-7275.2,5397.6-7231.2z"/>
</g>
<g>
	<circle class="st1" cx="-224" cy="-2719.7" r="1879.6"/>
	<path class="st2" d="M-315.7-1850.5c-8.9-16.8-10.2-32.9-10.2-41.5v-1812.9c0-10.6,1.9-31.4,15.2-52c5.7-8.9,11.9-15.4,17.4-20.4
		h-544.9c6.1,5,15.3,13.9,22.5,27.5c10.2,19.2,10.4,37.7,10.4,44.9c0.1,33,0.3,781.1,0,1806.2c0.1,8.8-0.9,24.5-8.8,42.1
		c-7.4,16.7-17.7,27.3-24.1,33.3c88,0,544.9,0,544.9,0C-299.5-1828.2-308.5-1836.9-315.7-1850.5z"/>
	<path class="st3" d="M-65.6-1823.2h567.7v-635.6c-28,85.7-84.5,212.8-189.7,340.5C176.7-1953.6,24.3-1867.2-65.6-1823.2z"/>
</g>
<g>
	<circle cx="5239.2" cy="-2719.7" r="1879.6"/>
	<path class="st5" d="M5147.4-1850.5c-8.9-16.8-10.3-32.9-10.3-41.5v-1812.9c0-10.6,2-31.4,15.3-52c5.7-8.9,12-15.4,17.5-20.4H4625
		c6.1,5,15.3,13.9,22.5,27.5c10.2,19.2,10.4,37.7,10.4,44.9c0.1,33,0.3,781.1,0,1806.2c0.1,8.8-0.9,24.5-8.8,42.1
		c-7.4,16.7-17.7,27.3-24.1,33.3c88,0,544.9,0,544.9,0C5163.8-1828.2,5154.6-1836.9,5147.4-1850.5z"/>
	<path class="st5" d="M5397.6-1823.2h567.5v-635.6c-28,85.7-84.3,212.8-189.6,340.5C5639.8-1953.6,5487.6-1867.2,5397.6-1823.2z"/>
</g>
<g>
	<circle class="st5" cx="2500.1" cy="2500.3" r="1879.6"/>
	<path d="M2408.4,3369.5c-8.9-16.8-10.3-32.9-10.3-41.5V1515.1c0-10.6,2-31.3,15.2-52c5.7-8.9,12-15.3,17.4-20.3h-544.9
		c6.1,5,15.3,13.9,22.5,27.5c10.2,19.2,10.4,37.7,10.4,44.8c0.1,33,0.3,781.1,0,1806.2c0.1,8.8-0.9,24.5-8.8,42.1
		c-7.4,16.7-17.7,27.3-24.1,33.3c88,0,544.9,0,544.9,0C2424.7,3391.8,2415.6,3383.1,2408.4,3369.5z"/>
	<path d="M2658.5,3396.8h567.6v-635.7c-28,85.7-84.4,212.8-189.6,340.5C2900.8,3266.4,2748.4,3352.8,2658.5,3396.8z"/>
</g>
</svg>
